<?xml version="1.0" encoding="utf-8"?>
<!-- Generator: Adobe Adobe Illustrator 24.2.0, SVG Export Plug-In . SVG Version: 6.00 Build 0)  -->
<svg version="1.1" id="Layer_1" xmlns="http://www.w3.org/2000/svg" xmlns:xlink="http://www.w3.org/1999/xlink" x="0px" y="0px"
	 width="1080px" height="1080px" viewBox="0 0 1080 1080" style="enable-background:new 0 0 1080 1080;" xml:space="preserve">
<style type="text/css">
	.st0{fill:none;stroke:#FFFFFF;stroke-width:53;stroke-linecap:round;stroke-miterlimit:10;}
	.st1{fill:none;stroke:#FFFFFF;stroke-width:10;stroke-linecap:round;stroke-miterlimit:10;}
</style>
<g>
	<path d="M206.56,300c14.95-18.96,28.35-38.53,44.96-55.57c16.35-16.77,35.06-29.9,56.94-38.14c8.54-3.22,17.59-5.07,26.71-7.63
		c0.08-4.04-2.98-6.53-5.04-9.12c-16.33-20.62-20.98-44.18-17.88-69.68c3.53-29.02,18.92-50.97,42.29-67.3
		c18.3-12.79,38.88-19.64,61.48-20.8c21.51-1.1,41.6,3.69,60.43,13.29c25.96,13.22,44.38,34.07,52.48,61.98
		c8,27.56,3.13,54.38-12.41,78.71c-4.05,6.34-9.63,11.68-15.05,18.12c12.32,2.24,23.82,4.83,35.46,6.34
		c24.69,3.21,49.03,8.38,73.14,14.25c18.46,4.49,36.83,9.55,55,15.41c22.62,7.29,44.66,15.96,66.47,25.18
		c13.99,5.92,27.44,13.23,40.78,20.55c17.86,9.79,34.97,20.89,51.13,33.28c13.86,10.62,27.12,21.99,39.85,34.03
		c12.45,11.77,23.52,24.73,34.23,37.95c9.26,11.42,17.36,23.81,24.98,36.48c6.01,9.99,11.26,20.36,16.02,30.94
		c6.06,13.45,10.54,27.47,14.49,41.76c4.36,15.73,6.49,31.57,7.51,47.75c1.32,20.8-1.15,41.24-4.92,61.59
		c-4.57,24.71-9.18,49.41-13.85,74.09c-0.58,3.09,0.83,4.9,2.81,7.02c14.25,15.22,29.02,30.03,42.32,46.05
		c15.25,18.37,28.59,38.05,38.21,60.3c11.39,26.36,14.55,53.31,11.07,81.56c-4.32,35.13-21.26,62.22-50.55,81.62
		c-21.83,14.46-45.94,21.15-72.19,22.03c-24.42,0.82-48.44-1.27-72.22-6.13c-11.37-2.32-22.29-6.77-33.56-9.73
		c-19.95-5.24-38.83-13.54-58.22-20.33c-13.71-4.8-27.36-9.99-41.01-15.06c-21.38-7.94-43.11-14.84-65.04-21.2
		c-11.43-3.31-22.97-6.15-34.51-8.82c-26.29-6.08-52.95-8.77-80.08-8.66c-25.25,0.1-49.76,2.76-72.98,12.92
		c-21.71,9.5-37.99,24.42-43.13,48.65c-5.01,23.58,17.62,47.21,44.59,38.39c8.56-2.8,16.45-1.42,24.29,1.63
		c8.45,3.28,15.07,14.32,14.88,23.91c-0.19,9.64-7.24,19.72-15.74,23.38c-26.84,11.56-52.79,9.1-78.45-3.96
		c-22.67-11.53-38.57-29.01-45.71-53.36c-4.8-16.37-4.16-33.37,0.73-49.84c6.97-23.47,20.99-42.46,39.88-57.44
		c15.83-12.55,33.78-21.47,53.41-27.2c29.82-8.7,60.11-12.45,91.09-11.68c17.36,0.43,34.4,3.25,51.51,5.79
		c26.2,3.89,51.78,10.09,77.12,17.86c17.11,5.25,34.11,10.71,50.94,16.78c24.62,8.87,49.42,17.24,73.9,26.45
		c13.21,4.97,26.44,9.85,39.98,13.77c28.22,8.15,56.72,13,86.34,9.01c24.17-3.26,42.38-14.77,51.97-37.18
		c7.08-16.55,7.92-34.08,4.2-52.19c-5.05-24.57-19.71-43.45-34.14-62.52c-13.89-18.37-29.54-35.31-44.95-52.42
		c-1.08-1.2-2.05-2.37-4.22-2.64c-14.62,15.28-31.3,28.51-49.7,39.13c-14.85,8.57-30.54,15.51-47.26,20.32
		c-23.82,6.85-47.96,9.9-72.54,8.59c-17.66-0.94-35.09-3.67-52.44-7.83c-19.7-4.72-38.49-11.82-56.8-19.91
		c-16.73-7.39-32.88-16.26-48.61-25.79c-28.13-17.05-55.08-35.78-81.49-55.37c-27.3-20.25-54.63-40.5-82.64-59.73
		c-26-17.85-52.73-34.61-80.22-50.21c-16.92-9.6-33.74-19.49-51.04-28.27c-17.29-8.78-34.88-17.13-52.5-25.33
		c-16.46-7.66-33.25-14.48-49.84-21.77c-16.14-7.09-32.87-12.85-49.64-19.32c-4.57,7.52-8.31,15.15-15.09,20.66
		c-19.88,16.12-56.79,13.38-69.83-12.96c-11.53-23.3,1.26-50.12,26.7-56.29c13.89-3.37,26.55-2.3,38.72,5.18
		c4.14,2.55,7.03,1.55,10.07-2.62c16.48-22.58,33.24-44.95,50.02-67.31C175.52,340.99,190.95,320.72,206.56,300z M374.93,420.48
		c9.5-10.25,15.17-22.36,18.39-35.92c7.06-29.7,3.44-57.4-14.26-82.76c-15.02-21.52-44.06-26.17-62.67-6.8
		c-11.41,11.88-18.11,25.87-20.99,41.94c-5.44,30.3-1.89,58.74,18.53,83.05C331.75,441.19,358.82,438.88,374.93,420.48z
		 M240.4,317.62c-5.72-0.31-11.22,0.65-15.76,4.26c-20.1,15.99-21.04,49.9-5.91,68.04c13.24,15.89,31.19,13.2,41.48-3.52
		c7.78-12.64,9.01-26.26,5.71-40.74C262.74,331.66,256.1,321.34,240.4,317.62z"/>
</g>
<path class="st0" d="M500.97,415.4c11.59,39.63,33.36,77.81,67.72,100.71s82.64,27.4,116.56,3.85
	c36.38-25.25,47.83-76.23,37.24-119.23c-8.49-34.44-30.6-66.78-63.03-81.16"/>
<path class="st0" d="M918.02,702.63C863.8,643.3,806.92,635.54,739,589c-54-37-91-86-114.46-143.61"/>
<g>
	<path d="M1025.13,796.82c-9.61-22.25-22.95-41.94-38.21-60.3c-13.31-16.02-28.07-30.83-42.32-46.05c-1.98-2.11-3.39-3.92-2.81-7.02
		c0.3-1.61,0.61-3.23,0.91-4.84c-2.69,2.05-5.4,4.09-8.16,6.05c-12.8,9.13-25.49,18.3-38.01,27.81c-3.77,2.86-7.57,5.69-11.37,8.5
		c-1.15,3.03-2.3,6.05-3.44,9.08c-0.39,1.12-0.77,2.23-1.15,3.35c4.76-4.21,9.37-8.6,13.77-13.2c2.17,0.28,3.14,1.45,4.22,2.64
		c15.4,17.11,31.05,34.05,44.95,52.42c14.43,19.07,29.09,37.96,34.14,62.52c3.72,18.1,2.88,35.64-4.2,52.19
		c-9.59,22.41-27.8,33.92-51.97,37.18c-29.62,3.99-58.12-0.85-86.34-9.01c-13.55-3.91-26.77-8.8-39.98-13.77
		c-24.49-9.21-49.29-17.58-73.9-26.45c-16.83-6.06-33.83-11.53-50.94-16.78c-25.34-7.77-50.92-13.97-77.12-17.86
		c-17.11-2.54-34.15-5.35-51.51-5.79c-30.98-0.77-61.28,2.98-91.09,11.68c-19.63,5.73-37.58,14.65-53.41,27.2
		c-18.89,14.98-32.91,33.97-39.88,57.44c-4.89,16.47-5.53,33.47-0.73,49.84c7.14,24.34,23.04,41.82,45.71,53.36
		c25.65,13.05,51.61,15.52,78.45,3.96c8.5-3.66,15.55-13.74,15.74-23.38c0.19-9.59-6.43-20.63-14.88-23.91
		c-7.84-3.04-15.73-4.43-24.29-1.63c-26.97,8.82-49.6-14.81-44.59-38.39c5.15-24.23,21.42-39.15,43.13-48.65
		c23.22-10.16,47.73-12.82,72.98-12.92c27.12-0.11,53.79,2.58,80.08,8.66c11.54,2.67,23.08,5.51,34.51,8.82
		c21.93,6.36,43.66,13.26,65.04,21.2c13.65,5.07,27.3,10.26,41.01,15.06c19.39,6.79,38.27,15.09,58.22,20.33
		c11.26,2.96,22.18,7.4,33.56,9.73c23.78,4.86,47.8,6.94,72.22,6.13c26.26-0.88,50.36-7.57,72.19-22.03
		c29.29-19.39,46.23-46.49,50.55-81.62C1039.68,850.13,1036.52,823.18,1025.13,796.82z"/>
</g>
<path d="M351.66,202.2c5.66-23.77,11.35-47.77,11.71-72.2c0.37-24.43-5.03-49.67-19.64-69.25c-14.61-19.58-39.52-32.41-63.63-28.42
	c-18.23,3.01-33.91,14.92-46,28.9c-31.93,36.91-42.46,91.12-26.67,137.3c4.87,14.25,12.35,28.07,24.08,37.54s28.24,13.87,42.32,8.51
	"/>
<path class="st1" d="M367.34,38.92c-62.71,30.18-76.81,106.74-29.16,158.74"/>
</svg>
