<?xml version="1.0" encoding="utf-8"?>
<!-- Generator: Adobe Adobe Illustrator 24.2.0, SVG Export Plug-In . SVG Version: 6.00 Build 0)  -->
<svg version="1.1" id="Layer_1" xmlns="http://www.w3.org/2000/svg" xmlns:xlink="http://www.w3.org/1999/xlink" x="0px" y="0px"
	 width="1920px" height="742px" viewBox="0 0 1920 742" style="enable-background:new 0 0 1920 742;" xml:space="preserve">
<style type="text/css">
	.st0{fill:none;stroke:#0000ff;stroke-width:5;stroke-miterlimit:10;}
</style>
<path class="st0" d="M0,566.01c78.57-27.21,141.25-96.98,160.44-178.6c4.33-18.43,3.17-43.4-14.62-49.41
	c-22.25-7.5-37.23,22.86-40.94,46.25c-10.69,67.32-11.92,147.98,41.19,190.06c50.63,40.11,125.63,23.2,181.45-9.14
	c62.31-36.1,114.92-89.08,150.84-151.9c8.23-14.39,15.8-30.2,14.83-46.8c-0.97-16.59-13.5-33.57-29.95-33.66
	c-24.76-0.13-34.58,32.39-34.41,57.4c0.49,69.12,30.78,148.31,96.96,165.9c65.99,17.55,128.63-33.9,177.96-81.52
	c56.49-54.54,112.99-109.07,169.48-163.61c26.48-25.57,53.55-51.55,86.54-67.64s73.49-20.94,105.82-3.55
	c51.99,27.96,62.75,99.06,54.52,157.97c-17.06,122.13-91.22,234.85-196.09,298.04c-31.3,18.86-76.91,31.12-99.96,2.6
	c-13.24-16.38-12.54-40.98-3.22-59.91c9.32-18.93,25.75-33.22,42.58-45.8c87.84-65.62,195.6-97.66,302.41-120.87
	c106.81-23.21,215.88-39.04,318.28-77.51c102.4-38.47,199.93-103.14,252.44-199.91c22.76-41.93,30.92-104.82-10.08-128.73
	c0.6,40.04,43.1,68.82,82.75,68.98c39.65,0.16,76.23-20.06,110.77-39.72"/>
</svg>
