<?xml version="1.0" encoding="UTF-8"?><svg id="Layer_2" xmlns="http://www.w3.org/2000/svg" viewBox="0 0 472.07 472.07"><defs><style>.cls-1{fill:#fff;}.cls-2{fill:#f15a24;}.cls-3{opacity:.5;}</style></defs><path d="M263.34,299.76c-.44,0-.88-.1-1.32-.29-2.08-.92-3.76-4.12-4.67-6.2-2.26,1.21-5.89,2.71-7.93,1.16-2.62-1.98-1.47-7.1-.38-10.37-4.02,.2-8.93-.19-9.51-3.2-.57-2.95,3.01-5.45,6.48-7.86,1.24-.86,3.05-2.12,3.55-2.78-4.27-11.68,5.37-30.72,5.37-30.72-.07,.19-6.57,19.35-2.45,29.96,.82,2.11-1.52,3.74-4.76,5.99-1.63,1.14-5.45,3.8-5.25,4.83,.54,.68,4.75,1,8.64,.6l2.51-.26-.97,2.33c-1.68,4.05-2.36,8.38-1.43,9.08,.53,.4,3.44-.54,6.07-2.21l1.58-1,.64,1.76c1.23,3.4,3.1,6.15,3.84,6.17,1.61-.67,2.48-2.67,3.69-5.44,.53-1.22,1.13-2.6,1.88-4.04,9.68-17.33,36.06-32.25,36.06-32.25-.24,.17-24.1,16.99-33.43,33.68-.68,1.3-1.24,2.57-1.77,3.8-1.38,3.16-2.56,5.88-5.3,7.01-.37,.15-.75,.23-1.14,.23Z"/><path d="M278.92,73.67l-.19,.09c.03-.05,.07-.12,.12-.17l.07,.07Z"/><path d="M402.74,74.85c-3.76,68.13-53.28,68.79-78.61,73.31,18.4-5.01,65.96-11.67,70.87-73.42,1.96-24.63-11.96-35.04-31.19-41.95-32.91-11.81-77.52,19.1-94.39,43.6-21.76-15.13-46.59-36.26-105.75,2.8C155.61,11.93,70.76,2.45,59.55,46.43c-5.23,20.47,4.28,69.73,24.42,88.87,15.1,14.35,44.23,8.34,53.52,5.94-3.72,1.44-9.61,4.45-15.2,6.23-8.58,2.72-15.24,6.01-33.68-.27-27.23-9.27-44.76-58.84-36.56-103.45C60.85-4.14,162.06,6.83,168.21,70.38c49.74-38.47,85.58-11.58,100.94-2.47,14.14-18.71,56.47-58.89,97.12-44.31,22.42,8.05,38.04,22.46,36.46,51.24Z"/><path d="M205.59,446.5c-74.54-.58-113.71-10.72-131-33.89-19.68-26.37-8.16-66.32,7.79-121.63,9.91-34.36,37.22-117.58,37.22-117.58-7.12,46.24-18.43,85.49-28.42,120.12-15.22,52.76-26.21,90.89-9.25,113.61,15.18,20.34,53.33,29.66,123.7,30.21,84.79,0,125.36-7.65,140.01-26.4,13.62-17.43,6.4-46.39-4.53-90.22-9.92-39.81-22.27-89.34-25.08-153.14,0,0,24.14,111.52,33.97,150.93,11.58,46.45,19.23,77.13,2.86,98.08-16.82,21.53-58.11,29.92-147.26,29.92Z"/><path d="M65.01,177.78c28.75-15.06,59.45-25.97,91.25-32.42l.61,2.99c-31.52,6.39-91.86,29.43-91.86,29.43Z"/><path d="M158.85,135.38c-31.38-7.09-63.57-9.71-95.66-7.78,0,0,64.68-2.35,96.33,4.81l-.67,2.98Z"/><path d="M378.01,170.33c-33.95-11.41-69.29-18.31-105.05-20.5l.18-3.05c36.03,2.21,104.87,23.55,104.87,23.55Z"/><path d="M272.3,138.08l-.47-3.02c35.65-5.59,71.92-6.47,107.8-2.61,0,0-55.56-4.24-107.33,5.63Z"/><path d="M87.14,191.18s55.35-34.49,86.93-43.29l.82,2.94c-31.26,8.71-60.78,22.29-87.74,40.35Z"/><path d="M261.14,157.32l.53-3.01c34.46,6.06,55.66,20.52,94.31,42.85,0,0-60.88-33.87-94.84-39.85Z"/><path d="M373.56,457.97c-.76,0-1.6-.06-2.52-.2-25.19-3.68-50.34-9.23-74.73-16.5l1.75-5.86c24.11,7.18,48.97,12.67,73.87,16.31,2.04,.3,3.05,0,3.32-.14-.02-.17-.15-.69-.9-1.73-5.82-8.05-14.96-12.07-21.6-14.04-8.74-2.58-18.15-3.23-27.25-3.85l.42-6.1c9.43,.65,19.17,1.31,28.56,4.09,7.55,2.23,17.99,6.87,24.83,16.31,.72,1,2.92,4.03,1.72,7.4-.5,1.39-2.17,4.31-7.46,4.31Z"/><path d="M57.82,457.97c-5.29,0-6.96-2.92-7.46-4.31-1.2-3.37,1-6.4,1.72-7.4,6.84-9.44,17.27-14.08,24.83-16.31,9.39-2.77,19.14-3.44,28.56-4.09l.42,6.1c-9.1,.62-18.5,1.27-27.25,3.85-6.64,1.96-15.78,5.99-21.6,14.04-.75,1.04-.88,1.56-.9,1.73,.27,.15,1.28,.44,3.32,.14,24.9-3.64,49.75-9.13,73.87-16.31l1.75,5.86c-24.39,7.27-49.54,12.82-74.73,16.5-.92,.13-1.76,.2-2.52,.2Z"/><ellipse cx="257.97" cy="104.23" rx="5.34" ry="8.4"/><ellipse cx="181.9" cy="104.23" rx="5.34" ry="8.4"/><path d="M295.76,91.97s22.79-32.68,39.51-35.35c17.53-2.79,44.97,7.71,44.97,7.71-18.53-11.55-27.31-15.22-43.96-12.57-15.72,2.52-26.02,15.86-40.52,40.21Z"/><path d="M203.83,152.95v-3.05c7.52,0,13-6.66,13.05-6.73l1.26-1.56,1.17,1.63c.04,.06,4.46,6.1,12,6.1v3.05c-6.71,0-11.26-3.81-13.29-5.96-2.26,2.25-7.42,6.52-14.19,6.52Z"/><polygon points="217.58 132.04 226.43 123.64 208.73 123.64 217.58 132.04"/><path class="cls-3" d="M350.2,415.71c0-38.79-91.14-54.8-135.32-54.8-41.82,0-137.94,30.08-132.71,53.49,6.67,29.86,131.13,25.42,161.73,25.42,23.53,0,78.25-1.71,85.52-11.78"/><path class="cls-3" d="M369.25,64.51c-5.07-14.9-21.76-17.24-54.29,1.1-12.33,6.95-12.66,29.23-6.12,39.44,19.03,29.71,72.55-4.83,60.4-40.54Z"/><path d="M151.43,96.6s-13.82-35.84-28.39-41.74c-15.28-6.18-42.3-1.62-42.3-1.62,19.17-7.35,27.89-9.11,42.41-3.23,13.71,5.55,20.24,20.38,28.29,46.59Z"/><path class="cls-3" d="M90.65,55.61c7.69-13.24,23.29-12.14,48.9,11.91,9.71,9.12,5.37,30.5-2.68,38.97-23.42,24.63-64.65-19.14-46.22-50.88Z"/><g><path d="M355.86,365.3c-1.76,.25-3.32-1.05-3.48-2.82-1.67-19,6.34-31.93,13.45-43.41,5.23-8.44,12.36-15.73,12.47-24.16,.13-10.12-4.84-19.91-7.33-30.27-2.25-9.34-4.58-19-4.88-28.86-1.29-41.94,39.55-64.02,44.81-65.86-13.28,8.11-40.16,17.62-38.7,65.67,.28,9.24,2.53,18.59,4.71,27.62,2.48,10.27,5.04,20.89,4.89,31.78-.13,10.13-5.3,18.47-10.77,27.3-6.91,11.16-14.05,22.67-12.56,39.64,.14,1.65-.96,3.14-2.6,3.37h0Z"/><path d="M355.43,366.64c-.97,0-1.91-.32-2.68-.94-.95-.75-1.56-1.89-1.67-3.11-1.71-19.43,6.45-32.59,13.64-44.21,1.37-2.21,2.86-4.33,4.3-6.38,4.06-5.79,7.9-11.25,7.98-17.11,.08-6.48-1.99-12.8-4.18-19.5-1.11-3.39-2.26-6.89-3.12-10.45-2.27-9.4-4.61-19.12-4.92-29.13-.67-21.72,9.91-37.89,19.33-47.9,4.08-4.92,8.67-8.55,13.13-11.48,6.15-4.45,11.33-7.1,13.22-7.76l11.59-4.05-10.48,6.4c-1.39,.85-2.92,1.71-4.53,2.62-3.04,1.71-6.43,3.62-9.85,5.99-3.34,2.54-6.92,5.62-10.39,9.24-7.93,9.22-14.01,23.28-13.3,46.66,.28,9.09,2.51,18.35,4.67,27.31,2.51,10.41,5.09,21.1,4.94,32.14-.14,10.5-5.4,18.99-10.97,27.97-6.8,10.97-13.82,22.3-12.37,38.84,.21,2.36-1.43,4.46-3.72,4.78h0c-.21,.03-.42,.04-.62,.04Zm19.1-161.01c-4.54,8.54-7.48,18.59-7.13,30.1,.3,9.74,2.61,19.33,4.85,28.6,.83,3.45,1.96,6.91,3.06,10.25,2.16,6.6,4.4,13.43,4.31,20.35-.09,6.67-4.15,12.46-8.45,18.59-1.42,2.02-2.89,4.11-4.21,6.25-6.98,11.27-14.89,24.04-13.26,42.6,.05,.52,.29,.97,.68,1.29,.37,.3,.84,.42,1.31,.36,.95-.15,1.57-.98,1.48-1.96-1.53-17.4,5.73-29.12,12.75-40.44,5.38-8.67,10.45-16.86,10.58-26.63,.14-10.71-2.4-21.24-4.85-31.43-2.21-9.16-4.47-18.55-4.75-27.91-.37-12.27,1.06-22.07,3.64-30Z"/></g><g><path d="M187.55,241.98c-35.25-10.65-32.02-39.52-22.97-69.48,.61-2.03,3.07-3.08,5.49-2.35,2.42,.73,3.89,2.97,3.28,5-9.56,31.65-10.65,51.31,16.41,59.49,28.53,8.62,39.39-11.28,48.07-40.01,.61-2.03,3.07-3.08,5.49-2.35,2.42,.73,3.89,2.97,3.28,5-10.23,33.85-22.03,54.37-59.06,44.7Z"/><path d="M148.24,408l-17.54-5.3c-2.42-.73-3.75-3.42-2.97-6,.78-2.58,3.38-4.08,5.8-3.35l17.54,5.3c2.42,.73,3.75,3.42,2.97,6-.78,2.58-3.38,4.08-5.8,3.35Z"/><g><line class="cls-2" x1="141.08" y1="400.04" x2="205.53" y2="186.72"/><path d="M140.13,403.16c-1.62-.49-2.51-2.28-1.99-4l64.45-213.32c.52-1.72,2.25-2.72,3.87-2.24s2.51,2.28,1.99,4l-64.45,213.32c-.52,1.72-2.25,2.72-3.87,2.24Z"/></g></g><path class="cls-1" d="M162.44,281.52c-2.29,9.2,6.76,17.05,7.78,17.8s2.43,.55,3.48-.15,.07-4.29,.82-5.37c1.45-2.1,6.18-.91,7.04-3.38,.37-1.05-.88-2.98-.4-3.97,1.21-2.48-.59-4.18,.9-6.45,.8-1.22,5.56-2.57,5.04-3.96-.58-1.53-2.24-1.97-3.6-2.67-15.82-8.15-21.04,8.15-21.04,8.15Z"/><path d="M173.77,300.7c.41-.15,.79-.4,1.13-.73,1.63-1.59,2.1-5.17,2.22-7.44,2.54,.35,6.46,.49,7.84-1.67,1.77-2.77-1.09-7.17-3.26-9.85,3.84-1.21,8.3-3.29,7.8-6.31-.49-2.96-4.72-4.06-8.81-5.12-1.46-.38-3.6-.93-4.29-1.37-.06-12.43-15.72-26.93-15.72-26.93,.13,.16,12.89,15.85,12.72,27.24-.03,2.26,2.73,2.98,6.55,3.96,1.92,.5,6.43,1.66,6.6,2.7-.27,.82-4.1,2.6-7.89,3.56l-2.44,.63,1.72,1.85c2.98,3.21,5.13,7.03,4.5,8.02-.36,.56-3.41,.69-6.46,.04l-1.83-.39v1.87c.04,3.61-.75,6.85-1.44,7.12-1.74-.06-3.26-1.64-5.35-3.81-.92-.96-1.97-2.05-3.17-3.13-15.11-12.87-45.03-17.68-45.03-17.68,.28,.07,28.51,7.54,43.06,19.94,1.09,.98,2.05,1.98,2.99,2.95,2.39,2.48,4.45,4.63,7.41,4.73,.4,.01,.79-.05,1.15-.18Z"/></svg>